# xmcd
# Copyright (C) 1995-1998 Ti Kan
#
# Track frame offsets:
#       150
#       2260
#       15767
#       33242
#       50545
#       71553
#       103138
#
# Disc length: 1575 seconds
#
# Revision: 0
# Processed by: cddbd v1.5.2PL0 Copyright (c) Steve Scherf et al.
# Submitted via: CD-Import v1.0
#
DISCID=45062507
DTITLE=PAN - Panoptikum
DYEAR=1900
DGENRE=
TTITLE0=Intro
TTITLE1=Hymn
TTITLE2=Rising Moon
TTITLE3=Flying Train
TTITLE4=Who's In You
TTITLE5=My Influence
TTITLE6=Lick on Fire
EXTD=
EXTT0=
EXTT1=
EXTT2=
EXTT3=
EXTT4=
EXTT5=
EXTT6=
PLAYORDER=
